<?xml version="1.0" standalone="no"?>
<!DOCTYPE svg PUBLIC "-//W3C//DTD SVG 20010904//EN"
 "http://www.w3.org/TR/2001/REC-SVG-20010904/DTD/svg10.dtd">
<svg version="1.0" xmlns="http://www.w3.org/2000/svg"
 width="300.000000pt" height="168.000000pt" viewBox="0 0 300.000000 168.000000"
 preserveAspectRatio="xMidYMid meet">
<metadata>
Created by potrace 1.15, written by Peter Selinger 2001-2017
</metadata>
<g transform="translate(0.000000,168.000000) scale(0.100000,-0.100000)"
fill="#000000" stroke="none">
<path d="M155 1633 c1 -26 -3 -79 -7 -118 -11 -88 -15 -235 -7 -235 3 0 4 -11
2 -23 -5 -24 14 -47 93 -118 16 -15 58 -57 94 -94 67 -70 132 -122 210 -168
25 -14 51 -30 59 -36 11 -7 1 -22 -45 -69 -63 -63 -118 -160 -129 -227 -4 -22
-27 -89 -52 -149 -44 -106 -45 -110 -40 -195 5 -87 12 -140 19 -147 17 -16
252 -27 573 -27 204 1 382 2 397 3 28 3 46 36 28 54 -7 7 -10 4 -10 -6 0 -21
-49 -20 -68 2 -8 8 -11 9 -7 3 3 -8 0 -13 -8 -13 -12 0 -13 4 -4 24 7 14 14
21 17 18 3 -4 15 -12 26 -19 20 -11 21 -10 17 10 -4 18 -3 19 6 7 8 -10 13
-12 19 -4 4 7 15 8 27 3 11 -4 16 -8 10 -8 -5 -1 -10 -17 -11 -36 l0 -34 370
0 c204 0 402 3 439 7 69 7 69 7 82 44 12 36 12 37 -8 26 -17 -9 -19 -8 -12 8
15 38 18 67 6 60 -7 -5 -10 -13 -8 -19 2 -7 -11 -27 -29 -46 -25 -27 -40 -34
-68 -34 -20 0 -36 -3 -36 -7 0 -8 -51 -32 -56 -27 -2 2 7 9 20 17 14 7 35 32
48 56 14 28 25 39 30 31 7 -12 9 -10 12 15 0 6 16 18 33 27 39 19 43 34 7 25
-19 -5 -25 -4 -20 5 4 6 16 11 27 11 11 0 19 7 19 16 0 8 -4 13 -10 9 -12 -8
-50 16 -50 32 0 7 7 13 16 13 8 0 13 -4 10 -8 -3 -5 8 -6 24 -4 27 4 34 22 9
22 -5 0 -19 9 -31 20 -12 10 -24 17 -28 15 -5 -3 -11 2 -14 11 -6 17 8 14 73
-12 43 -18 57 -18 41 1 -7 8 -19 15 -26 15 -8 0 -14 5 -14 11 0 7 12 10 29 7
17 -2 28 -1 25 4 -3 4 -12 8 -20 8 -8 0 -14 9 -14 21 0 20 -4 21 -45 16 -24
-4 -47 -2 -50 3 -3 5 -12 7 -19 4 -7 -3 -21 2 -30 11 -9 9 -21 13 -26 10 -12
-7 -62 40 -52 49 3 3 14 6 24 6 19 0 22 8 10 26 -10 16 -71 13 -65 -3 3 -8 15
-11 32 -8 26 5 26 5 3 -7 -19 -9 -26 -9 -39 5 -13 13 -14 19 -3 31 7 9 20 16
29 16 14 0 14 2 1 11 -11 8 -5 9 25 5 22 -3 58 -7 80 -7 l40 -2 -45 -7 c-26
-4 -34 -8 -20 -9 20 -1 22 -3 10 -11 -13 -8 -12 -10 3 -10 9 0 17 6 18 13 0 6
4 3 9 -8 7 -17 9 -17 9 -2 1 11 9 17 24 18 12 0 17 3 10 5 -17 7 -4 34 17 34
20 0 46 -27 53 -55 4 -18 5 -18 6 2 1 14 14 31 36 45 39 26 50 47 39 81 -6 20
-7 21 -14 3 -3 -11 -18 -20 -33 -22 -25 -2 -27 0 -28 34 0 30 -2 33 -9 17 -7
-17 -9 -15 -9 12 -1 20 -10 40 -23 53 -17 16 -21 30 -19 65 1 25 -2 45 -7 45
-12 0 -26 -86 -17 -101 4 -6 -7 -4 -23 5 -23 12 -37 13 -57 6 -20 -8 -29 -6
-45 10 -11 11 -25 20 -31 20 -5 0 -7 5 -4 10 4 6 11 8 16 5 5 -4 9 -2 9 3 0 6
15 6 40 0 22 -6 37 -14 34 -19 -3 -5 2 -9 11 -9 12 0 15 6 9 23 -9 30 -11 32
-27 19 -10 -9 -18 -8 -33 4 -10 8 -13 12 -6 9 8 -5 15 1 19 13 3 11 10 19 17
16 7 -2 30 2 52 9 33 12 41 12 52 1 7 -8 11 -18 9 -22 -2 -4 2 -25 10 -47 l13
-40 -6 50 c-4 28 -7 64 -8 81 -3 43 -16 62 -28 40 -5 -9 -6 -21 -3 -26 3 -6 1
-10 -4 -10 -11 0 -15 14 -11 39 1 8 -4 18 -12 22 -11 7 -10 11 2 19 10 6 17 5
23 -6 5 -8 13 -12 18 -8 5 3 14 -9 21 -26 8 -24 13 -29 20 -18 6 8 8 -15 5
-62 -2 -41 0 -86 4 -100 l7 -25 3 25 c1 14 2 58 3 99 1 47 5 76 13 78 17 6 25
-47 13 -87 -15 -50 -11 -83 4 -35 7 22 11 43 9 48 -2 4 0 7 4 7 13 0 33 59 22
66 -16 9 -10 24 9 18 9 -3 6 1 -8 10 l-25 14 28 11 c16 6 36 11 46 11 14 0 17
6 13 25 -5 30 -21 32 -53 7 -13 -10 -32 -21 -41 -25 -11 -4 -15 -13 -11 -26 5
-18 3 -19 -35 -8 -23 7 -44 16 -49 21 -4 5 -3 6 4 2 6 -3 15 -2 18 4 4 6 3 10
-2 9 -26 -4 -34 3 -31 27 4 38 30 52 65 34 15 -8 31 -15 35 -17 4 -2 18 7 31
20 l25 22 -20 25 c-10 13 -17 31 -15 41 4 14 1 15 -25 5 -26 -10 -31 -8 -49
14 -10 14 -17 33 -15 43 4 15 1 15 -25 -4 -16 -11 -29 -25 -29 -30 0 -18 -39
-8 -58 15 l-19 25 -39 -32 c-21 -17 -41 -35 -42 -39 -2 -5 -9 -5 -14 -2 -7 4
-8 2 -4 -4 4 -7 2 -20 -3 -29 -6 -10 -11 -12 -11 -5 0 6 -9 12 -20 12 -14 0
-18 5 -14 18 3 10 -5 4 -20 -13 -24 -28 -25 -29 -19 -5 6 23 5 24 -11 10 -10
-8 -22 -23 -28 -35 -5 -11 -18 -36 -29 -55 -25 -47 -25 -124 1 -173 11 -20 20
-40 20 -43 0 -14 -151 6 -207 27 -32 12 -69 23 -83 26 -14 2 -61 15 -105 28
-129 38 -187 53 -230 59 -22 4 -62 16 -89 28 -43 20 -49 21 -60 7 -7 -11 -29
-17 -65 -17 -30 -1 -56 -3 -58 -5 -7 -8 163 -102 214 -118 73 -25 222 -103
258 -137 17 -15 49 -42 72 -60 23 -18 52 -50 64 -72 12 -21 32 -43 45 -49 26
-12 32 -39 10 -47 -17 -6 -66 17 -86 41 -7 9 -26 25 -42 36 -23 16 -27 17 -22
4 11 -29 173 -141 197 -137 4 1 7 -2 7 -6 0 -12 54 -8 68 5 22 21 56 1 56 -34
1 -16 7 -37 14 -46 23 -27 27 -95 8 -116 -25 -27 -71 -44 -101 -37 -34 9 -74
54 -68 77 6 23 7 23 40 2 25 -17 25 -17 13 3 -15 24 -93 56 -118 48 -13 -5
-14 -4 -3 4 10 7 4 15 -28 34 -23 14 -38 28 -34 31 3 4 -8 10 -25 13 -18 4
-32 10 -32 15 0 5 -6 9 -13 9 -7 0 -22 7 -32 15 -39 30 -96 65 -105 65 -23 0
-6 -17 43 -44 28 -16 57 -35 62 -41 18 -20 109 -91 148 -114 47 -29 46 -55 -2
-59 -39 -4 -93 19 -118 51 -10 13 -23 22 -29 20 -6 -2 -17 3 -24 12 -7 8 -16
15 -21 15 -8 0 -50 42 -104 104 -16 19 -40 35 -51 35 -18 1 -34 18 -34 37 0 2
12 4 28 5 25 0 26 1 5 9 -12 5 -24 18 -28 29 -3 11 -14 23 -25 26 -10 3 -21
12 -24 20 -3 8 -10 15 -16 15 -14 0 -13 -27 3 -33 9 -4 9 -6 0 -6 -7 -1 -13
-5 -13 -11 0 -5 6 -7 14 -4 10 4 15 -6 18 -35 4 -48 -5 -53 -24 -11 -9 22 -20
30 -38 30 -24 1 -24 1 -6 15 11 8 16 15 12 15 -5 0 -3 7 4 15 14 16 6 35 -16
35 -7 0 -33 20 -56 44 -58 59 -68 73 -68 89 0 8 -10 25 -22 39 -13 14 -32 41
-42 61 -18 36 -19 38 -1 57 10 11 13 20 7 20 -6 0 -20 -10 -32 -22 -16 -17
-20 -19 -20 -6 0 9 6 18 13 21 24 8 -13 37 -39 31 -15 -4 -24 -2 -24 5 0 6 -8
11 -17 11 -21 0 -82 52 -97 82 -11 21 -15 24 -70 49 -54 26 -65 33 -69 51 -3
10 -16 22 -29 27 -12 5 -41 25 -63 45 -22 20 -43 36 -47 36 -5 0 -8 6 -8 14 0
8 -7 16 -15 20 -8 3 -15 11 -15 18 0 7 -9 24 -19 37 -10 13 -16 32 -14 42 3
11 0 19 -6 19 -6 0 -11 6 -11 14 0 8 -11 17 -24 20 -29 7 -40 44 -26 82 8 20
8 29 -1 34 -8 6 -7 9 2 13 17 6 -27 25 -79 33 l-37 6 0 -49z m1947 -905 c18
-18 3 -27 -18 -10 -5 4 -1 -1 9 -10 11 -10 29 -18 41 -18 20 0 22 -5 22 -47
l-1 -48 -42 0 c-48 1 -64 10 -34 20 23 7 27 20 9 31 -7 4 -8 3 -4 -4 10 -16
-41 -35 -68 -25 -20 6 -20 7 4 14 14 4 18 7 9 8 -12 1 -15 9 -13 31 3 21 -1
33 -12 37 -13 5 -13 8 2 24 21 23 71 22 96 -3z"/>
<path d="M1124 1669 c-3 -6 -27 -50 -51 -98 -68 -130 -93 -171 -105 -171 -5 0
-8 9 -5 20 7 27 3 26 -42 -15 -28 -25 -49 -36 -77 -37 -22 -2 -44 -9 -49 -16
-6 -7 -25 -14 -42 -14 -29 -1 -52 -23 -38 -36 3 -3 5 0 5 7 0 9 13 10 46 5 34
-5 48 -3 55 7 7 11 12 12 29 2 28 -18 38 -16 42 9 2 12 8 23 15 25 7 3 10 -4
7 -19 -5 -22 -5 -22 7 -3 7 11 13 27 14 35 0 8 9 16 19 18 18 4 19 3 4 -19 -8
-13 -30 -50 -48 -81 -17 -32 -35 -58 -39 -58 -4 0 -14 12 -21 28 -12 25 -13
26 -21 7 -4 -11 -8 -30 -8 -42 -1 -18 4 -23 25 -23 20 0 25 -4 20 -16 -3 -9
-9 -27 -12 -40 -3 -13 -10 -21 -15 -18 -5 3 -5 -5 0 -18 4 -13 15 -24 24 -26
18 -4 65 40 59 56 -2 6 1 19 6 29 8 14 20 17 59 15 26 -1 58 -2 70 -2 12 0 25
-5 29 -12 10 -16 -22 -36 -51 -30 -21 4 -25 1 -25 -21 0 -14 7 -27 15 -31 8
-3 15 -1 15 5 0 6 16 8 45 3 38 -5 45 -4 45 10 0 9 -7 16 -15 16 -13 0 -14 4
-4 22 9 16 9 23 0 26 -6 2 -11 8 -11 13 0 5 -9 18 -21 30 -17 17 -25 19 -48
11 -66 -23 -62 25 12 148 28 47 56 92 63 100 27 34 92 172 87 186 -6 17 -15
18 -32 2 -11 -11 -13 -10 -8 5 7 19 -17 25 -29 6z"/>
</g>
</svg>
